<svg xmlns="http://www.w3.org/2000/svg" width="127.434" height="57.426" viewBox="0 0 127.434 57.426">
    <defs>
        <clipPath id="clip-path">
            <path id="Rectangle_1684" d="M0 0H57.426V57.426H0z" class="cls-1"/>
        </clipPath>
        <style>
            .cls-1{fill:#ed1c24}.cls-2{fill:#1a1a1a}
        </style>
    </defs>
    <g id="Mobile_Footer_SS_Cricket_Logo" transform="translate(-29.3 -47)">
        <g id="Group_4246" transform="translate(29.3 54.182)">
            <g id="Group_4244">
                <path id="Path_1528" d="M36.861 90.839a6.073 6.073 0 0 1-2.569.438c-4 0-4.992-3.591-4.992-6.715 0-3.8 1.08-8 3.649-10.627a7.148 7.148 0 0 1 5.2-2.336 4.374 4.374 0 0 1 1.927.35l-.613 1.81a3.882 3.882 0 0 0-1.547-.263 4.716 4.716 0 0 0-3.562 1.781 13.907 13.907 0 0 0-2.832 8.671c0 3.182.759 5.4 3.27 5.4a5.332 5.332 0 0 0 1.985-.38z" class="cls-2" transform="translate(-29.3 -71.6)"/>
                <path id="Path_1529" d="M63.72 72.092a17.819 17.819 0 0 1 3.036-.292 4.767 4.767 0 0 1 3.5 1.226A4.285 4.285 0 0 1 71.34 76a6.211 6.211 0 0 1-4.029 5.926v.058c1.168.467 1.752 1.81 1.781 4.35a30.608 30.608 0 0 0 .292 4.9h-2.073a36.385 36.385 0 0 1-.2-4.788c-.058-2.715-.7-3.737-2.452-3.737h-.905l-1.635 8.525H60.1zm.321 8.963h1.022c2.306 0 4.087-2.131 4.087-4.9a2.336 2.336 0 0 0-2.54-2.657 4.645 4.645 0 0 0-1.168.117z" class="cls-2" transform="translate(-51.108 -71.742)"/>
                <path id="Path_1530" d="M102.951 72.1l-3.678 19.356H97.2l3.649-19.356z" class="cls-2" transform="translate(-77.377 -71.954)"/>
                <path id="Path_1531" d="M124.161 90.839a6.073 6.073 0 0 1-2.569.438c-4 0-4.992-3.591-4.992-6.715 0-3.8 1.08-8 3.649-10.627a7.148 7.148 0 0 1 5.2-2.336 4.374 4.374 0 0 1 1.927.35l-.613 1.839a3.881 3.881 0 0 0-1.547-.263 4.716 4.716 0 0 0-3.562 1.781 13.907 13.907 0 0 0-2.832 8.671c0 3.182.759 5.4 3.27 5.4a5.332 5.332 0 0 0 1.985-.38z" class="cls-2" transform="translate(-91.113 -71.6)"/>
                <path id="Path_1532" d="M151.149 72.1h2.044l-1.81 9.371h.088c.671-.993 1.168-1.81 1.722-2.569l4.817-6.8h2.336l-6.277 8.32 2.715 11.036h-2.131l-2.19-9.43-1.489 1.81-1.46 7.62H147.5z" class="cls-2" transform="translate(-112.992 -71.954)"/>
                <path id="Path_1533" d="M192.083 82.231h-4.759l-1.4 7.386h5.459L191 91.456h-7.5l3.649-19.356h7.151l-.38 1.839h-5.051l-1.255 6.481h4.786z" class="cls-2" transform="translate(-138.482 -71.954)"/>
                <path id="Path_1534" d="M225.7 74.027h-3.5l.38-1.927h9.02l-.38 1.927h-3.474l-3.3 17.4h-2.073z" class="cls-2" transform="translate(-165.884 -71.954)"/>
            </g>
            <g id="Group_4245" transform="translate(7.123 20.933)">
                <path id="Path_1535" d="M66.137 163.085l1.547-11.006c.234-1.664.526-3.241.847-5.2h-.146c-.7 2.014-1.431 3.912-2.131 5.459L61.524 163h-1.372l-.7-10.89c-.088-1.606-.146-3.241-.117-5.226h-.088c-.438 2.014-.7 3.562-1.109 5.226L55.6 163.114h-1.9l4.759-19.385h2.277l.671 11.182c.088 1.489.146 2.89.117 4.438h.088c.526-1.547 1.109-2.978 1.752-4.5l4.817-11.149h2.365l-2.569 19.356h-1.84z" class="cls-2" transform="translate(-53.7 -143.583)"/>
                <path id="Path_1536" d="M119.683 153.831h-4.759l-1.4 7.386h5.459l-.38 1.839h-7.5l3.649-19.356h7.148l-.38 1.839h-5.051l-1.255 6.481H120z" class="cls-2" transform="translate(-94.342 -143.583)"/>
                <path id="Path_1537" d="M144.479 157.217l-2.336 5.839H140.1l8-19.356h2.277l.613 19.356h-2.014l-.146-5.839zm4.35-1.635l-.117-4.992c-.029-1.372.029-3.007.029-4.467h-.088c-.5 1.489-1.08 3.182-1.606 4.5l-1.985 4.992h3.766z" class="cls-2" transform="translate(-114.876 -143.583)"/>
                <path id="Path_1538" d="M183.1 163.156l3.649-19.356h1.985l1.985 10.452c.38 1.956.73 3.766.963 5.547h.058c.263-2.073.525-4.35.963-6.6l1.781-9.371h1.839l-3.649 19.356h-1.868l-2.044-10.072a54.386 54.386 0 0 1-.934-6.014h-.088c-.263 2.014-.642 4.438-1.051 6.744l-1.752 9.342H183.1z" class="cls-2" transform="translate(-145.322 -143.654)"/>
                <path id="Path_1539" d="M224.542 160.35a4.958 4.958 0 0 0 2.569.73 3.439 3.439 0 0 0 3.533-3.737 5.34 5.34 0 0 0-1.985-3.883 6.794 6.794 0 0 1-2.394-4.759 5.245 5.245 0 0 1 5.459-5.4 5.049 5.049 0 0 1 2.569.613l-.642 1.781a4.1 4.1 0 0 0-2.131-.526 3.115 3.115 0 0 0-3.153 3.27c0 1.4.759 2.482 2.044 3.679a6.76 6.76 0 0 1 2.336 4.846c0 3.5-2.131 6.014-5.751 6.014a5.925 5.925 0 0 1-3.095-.759z" class="cls-2" transform="translate(-174.211 -143.3)"/>
            </g>
        </g>
        <g id="Group_4251" transform="translate(99.309 47)">
            <g id="Group_4247" transform="translate(4.554 15.765)">
                <path id="Rectangle_1683" fill="#fff" d="M0 0H47.879V26.158H0z"/>
            </g>
            <g id="Group_4250">
                <g id="Group_4249">
                    <g id="Group_4248" clip-path="url(#clip-path)">
                        <path id="Path_1540" d="M317.5 88.281h-16.2a2.674 2.674 0 0 1-2.452-2.8V76.72h9.926v8.5a.889.889 0 0 0 1.635.146l-.088-8.963a1.163 1.163 0 0 0-1.285-1.022l-7.824-.5a3.447 3.447 0 0 1-2.394-3.445v-5.722a3.392 3.392 0 0 1 3.211-2.54h14.948a3.115 3.115 0 0 1 3.27 2.686v5.84l-9.985.029.058-5.547a.888.888 0 0 0-1.722 0v5.547c.117.7.409.934 1.109 1.051l9.547.847A1.822 1.822 0 0 1 320.337 75v10.566a2.816 2.816 0 0 1-2.832 2.715zm-20.641-2.8a2.828 2.828 0 0 1-2.8 2.8h-16.2a2.646 2.646 0 0 1-2.423-2.8V76.72h9.926v8.5a.868.868 0 0 0 1.606.146l-.058-8.963a1.19 1.19 0 0 0-1.314-1.022l-7.795-.5a3.475 3.475 0 0 1-2.423-3.445v-5.722a3.423 3.423 0 0 1 3.211-2.54h14.948a3.163 3.163 0 0 1 3.27 2.686v5.84l-9.955.029.029-5.547a.87.87 0 0 0-1.693 0v5.547c.088.7.409.934 1.109 1.051l9.517.847A1.884 1.884 0 0 1 296.893 75l-.029 10.481zM297.827 47a28.727 28.727 0 1 0 28.728 28.727A28.726 28.726 0 0 0 297.827 47z" class="cls-1" transform="translate(-269.1 -47)"/>
                    </g>
                </g>
            </g>
        </g>
    </g>
</svg>
